<?xml version="1.0" encoding="UTF-8" standalone="no"?>
<!-- Created with Inkscape (http://www.inkscape.org/) -->

<svg
   width="30.234604mm"
   height="31.662069mm"
   viewBox="0 0 30.234604 31.662069"
   version="1.1"
   id="svg1"
   xmlns:xlink="http://www.w3.org/1999/xlink"
   xmlns="http://www.w3.org/2000/svg"
   xmlns:svg="http://www.w3.org/2000/svg">
  <defs
     id="defs1">
    <linearGradient
       xlink:href="#linearGradient6790-7"
       id="linearGradient36370"
       gradientUnits="userSpaceOnUse"
       gradientTransform="matrix(0.32729007,0,0,0.32729007,-3108.6206,-399.87118)"
       x1="2292.4263"
       y1="-3003.001"
       x2="2387.5032"
       y2="-2860.6738" />
    <linearGradient
       id="linearGradient6790-7"
       gradientUnits="userSpaceOnUse"
       x1="218.9566"
       y1="493.82831"
       x2="106.0203"
       y2="146.24631"
       gradientTransform="matrix(1,0,0,-1,0,515.0861)">
      <stop
         offset="0"
         style="stop-color:#00ffa8;stop-opacity:1;"
         id="stop6784-3" />
      <stop
         offset="0.5"
         style="stop-color:#00ff6e;stop-opacity:1;"
         id="stop6786-3" />
      <stop
         offset="1"
         style="stop-color:#00ffb9;stop-opacity:1;"
         id="stop6788-4" />
    </linearGradient>
  </defs>
  <g
     id="layer1"
     transform="translate(-82.02087,-115.09369)">
    <g
       id="logo-icon-shadow_enGON"
       style="display:inline"
       transform="translate(2446.9289,1501.7273)">
      <circle
         style="display:inline;mix-blend-mode:normal;fill:#000000;fill-opacity:1;stroke:none;stroke-width:2.39737;-inkscape-stroke:none;paint-order:fill markers stroke;stop-color:#000000"
         id="path10018-7-7-0-7-22-0"
         cx="-2353.303"
         cy="-1372.3015"
         r="3.8348231" />
      <path
         style="font-variation-settings:normal;display:inline;mix-blend-mode:normal;fill:#000000;fill-opacity:1;stroke:#000000;stroke-width:1.80056;stroke-linecap:butt;stroke-linejoin:miter;stroke-miterlimit:4;stroke-dasharray:none;stroke-dashoffset:0;stroke-opacity:1;paint-order:fill markers stroke;stop-color:#000000"
         d="m -2353.8622,-1357.1069 c -0.1607,-0.091 -0.5058,-0.281 -0.7669,-0.4212 -0.2611,-0.1402 -0.5075,-0.2795 -0.5477,-0.3095 -0.041,-0.03 -0.2868,-0.1693 -0.5479,-0.3095 -0.261,-0.1402 -0.5897,-0.3199 -0.7303,-0.3994 -0.1406,-0.079 -0.4693,-0.2604 -0.7305,-0.4019 -0.7786,-0.4222 -1.2006,-0.6584 -1.2782,-0.7158 -0.04,-0.029 -0.2866,-0.1688 -0.5477,-0.3091 -0.695,-0.3733 -1.1716,-0.6421 -1.4609,-0.8234 -0.1405,-0.088 -0.3213,-0.1812 -0.4016,-0.2067 -0.2908,-0.092 -1.5661,-1.1157 -1.8348,-1.4723 -0.1513,-0.2008 -0.2981,-0.3817 -0.3261,-0.4016 -0.1577,-0.1129 -0.6599,-1.2739 -0.7268,-1.68 -0.2132,-1.2944 -0.2234,-1.634 -0.1995,-6.6467 0.025,-5.2383 0.044,-5.6243 0.3112,-6.2449 0.052,-0.1205 0.1514,-0.3507 0.2214,-0.5113 0.1467,-0.337 0.7456,-1.1725 0.9962,-1.3894 0.2229,-0.193 1.3309,-0.9264 1.7044,-1.1282 0.1607,-0.087 0.4073,-0.2259 0.5478,-0.309 0.1407,-0.083 0.4694,-0.2667 0.7304,-0.408 0.2611,-0.1413 0.5974,-0.3341 0.7473,-0.4284 0.1498,-0.095 0.2889,-0.1716 0.3091,-0.1716 0.02,0 0.2559,-0.1342 0.5238,-0.2981 0.2681,-0.1641 0.5562,-0.3275 0.6404,-0.3631 0.084,-0.036 0.3176,-0.1641 0.5185,-0.2853 0.2008,-0.1211 0.4144,-0.2429 0.4746,-0.2705 0.06,-0.028 0.2247,-0.1219 0.3653,-0.209 0.1405,-0.088 0.4692,-0.2742 0.7304,-0.4156 0.2611,-0.1413 0.5899,-0.3266 0.7304,-0.4119 0.1406,-0.085 0.3214,-0.1873 0.4017,-0.2268 0.08,-0.04 0.3104,-0.1692 0.5113,-0.2882 0.7045,-0.4173 1.643,-0.8231 2.2829,-0.9874 1.155,-0.2966 2.7479,-0.1879 3.7468,0.2558 0.5957,0.2646 1.5191,0.7496 2.4794,1.3021 0.221,0.1272 0.4839,0.2705 0.5844,0.3184 0.1008,0.048 0.199,0.1056 0.2191,0.1267 0.021,0.022 0.1189,0.079 0.2191,0.1267 0.1008,0.048 0.3634,0.1912 0.5844,0.3184 0.2208,0.1271 0.6153,0.3461 0.8764,0.4865 0.261,0.1406 0.5076,0.2798 0.5478,0.3095 0.082,0.06 0.5677,0.3318 1.2782,0.7135 0.2612,0.1403 0.5076,0.2793 0.5478,0.3091 0.082,0.06 0.5691,0.3325 1.2782,0.7134 1.4938,0.8024 2.3532,1.6098 2.8372,2.6658 0.4547,0.9921 0.4576,1.0372 0.4327,7.2122 -0.019,4.5231 -0.042,5.6362 -0.1227,5.8432 -0.055,0.1405 -0.1485,0.387 -0.2074,0.5477 -0.059,0.1607 -0.1528,0.3794 -0.2087,0.486 -0.055,0.1069 -0.1021,0.2311 -0.1021,0.2765 0,0.1378 -0.921,1.3475 -1.273,1.6719 -0.3266,0.301 -0.8567,0.6653 -1.402,0.9635 -0.3096,0.1692 -0.635,0.3509 -1.3055,0.7284 -0.2411,0.1357 -0.5205,0.2919 -0.621,0.347 -0.1008,0.055 -0.3469,0.1981 -0.5477,0.3176 -0.201,0.1201 -0.4474,0.2567 -0.5479,0.3046 -0.1008,0.048 -0.1991,0.1044 -0.2192,0.1254 -0.02,0.022 -0.1516,0.098 -0.2921,0.1733 -0.4699,0.2489 -1.0582,0.5774 -1.132,0.6322 -0.041,0.029 -0.2867,0.1687 -0.5479,0.3091 -0.2611,0.1403 -0.5898,0.3249 -0.7304,0.4104 -0.1405,0.085 -0.3049,0.178 -0.3651,0.2058 -0.06,0.028 -0.3068,0.1687 -0.5479,0.3128 -0.4969,0.2974 -1.3848,0.7333 -1.4932,0.7333 -0.04,0 -0.1801,0.047 -0.312,0.1033 -0.5141,0.2208 -1.28,0.3352 -2.1859,0.3267 -1.5006,0.043 -3.0673,-0.641 -4.116,-1.2328 z m 4.9404,-3.3264 c 0.3359,-0.061 0.7093,-0.1579 0.8298,-0.2137 0.4618,-0.2137 0.7552,-0.3313 0.8267,-0.3313 0.041,0 0.085,-0.025 0.099,-0.055 0.013,-0.03 0.1722,-0.13 0.353,-0.2218 0.1809,-0.092 0.3933,-0.2069 0.472,-0.2557 0.3404,-0.2103 0.6912,-0.4117 1.1349,-0.6519 0.7562,-0.4091 1.1995,-0.6572 1.2782,-0.7148 0.08,-0.059 0.5504,-0.3214 1.2782,-0.7139 1.0499,-0.5662 1.683,-1.1002 2.1407,-1.8059 0.3013,-0.4648 0.4023,-0.729 0.5722,-1.4974 0.1273,-0.5759 0.1344,-0.8773 0.097,-4.1633 -0.04,-3.4881 -0.09,-4.2516 -0.3018,-4.5629 -0.054,-0.079 -0.097,-0.1922 -0.097,-0.251 0,-0.1129 -0.5293,-0.7823 -0.743,-0.9397 -0.07,-0.052 -0.169,-0.1353 -0.2212,-0.1872 -0.053,-0.052 -0.2585,-0.191 -0.4586,-0.3089 -0.2,-0.1176 -0.4191,-0.2472 -0.4868,-0.2874 -0.068,-0.041 -0.2821,-0.1545 -0.4763,-0.254 -0.1942,-0.1 -0.4682,-0.2505 -0.6087,-0.3355 -0.2441,-0.1473 -0.6505,-0.3738 -1.5339,-0.8546 -0.2209,-0.1202 -0.4346,-0.2428 -0.4747,-0.2723 -0.041,-0.029 -0.262,-0.1566 -0.4931,-0.2826 -0.231,-0.1258 -0.609,-0.3326 -0.8399,-0.4593 -0.2311,-0.127 -0.4857,-0.2666 -0.5661,-0.3105 -0.08,-0.044 -0.1953,-0.1152 -0.2557,-0.1584 -0.1975,-0.1418 -1.052,-0.4884 -1.3877,-0.5627 -0.6676,-0.148 -2.0324,-0.064 -2.4577,0.1516 -0.074,0.038 -0.3653,0.1785 -0.6465,0.3129 -0.2813,0.1344 -0.7085,0.3629 -0.9495,0.5076 -0.241,0.1447 -0.4875,0.286 -0.5479,0.3137 -0.06,0.028 -0.2246,0.1206 -0.3651,0.206 -0.1406,0.085 -0.466,0.2692 -0.7231,0.4086 -0.2571,0.1395 -0.5694,0.3156 -0.6938,0.3913 -0.1246,0.076 -0.2759,0.1605 -0.336,0.188 -0.06,0.028 -0.2247,0.1213 -0.3653,0.2086 -0.1406,0.088 -0.4692,0.2743 -0.7304,0.4156 -1.0113,0.5472 -1.2189,0.6712 -1.631,0.9742 -0.4459,0.328 -0.9719,0.9856 -1.1362,1.4204 -0.24,0.6357 -0.2639,1.0689 -0.2616,4.7476 0,2.0288 0.031,3.8857 0.066,4.1268 0.1,0.6826 0.4589,1.3906 0.97,1.9091 0.4553,0.462 0.8966,0.7472 2.4968,1.6143 0.2571,0.1394 0.5693,0.3136 0.6939,0.3872 0.1245,0.073 0.4566,0.2559 0.7378,0.4051 0.2811,0.1493 0.6262,0.3427 0.7669,0.4301 0.1406,0.088 0.3048,0.1811 0.3652,0.2086 0.06,0.028 0.2246,0.12 0.3651,0.2046 0.3837,0.2316 1.3896,0.7455 1.6801,0.858 0.322,0.1248 1.4227,0.3591 1.7265,0.3677 0.1261,0 0.5041,-0.044 0.84,-0.1057 z"
         id="path4500-9-4-4-0-4-0-2-9" />
      <path
         style="font-variation-settings:normal;display:inline;mix-blend-mode:normal;vector-effect:none;fill:url(#linearGradient36370);fill-opacity:1;stroke:none;stroke-width:2.62554;stroke-linecap:butt;stroke-linejoin:miter;stroke-miterlimit:4;stroke-dasharray:none;stroke-dashoffset:0;stroke-opacity:1;-inkscape-stroke:none;paint-order:fill markers stroke;stop-color:#000000"
         d="m -2351.7323,-1356.4751 c -1.1279,-0.2351 -1.935,-0.5491 -3.0677,-1.1941 -0.1607,-0.091 -0.5058,-0.281 -0.7669,-0.4212 -0.2611,-0.1402 -0.5075,-0.2794 -0.5478,-0.3094 -0.041,-0.03 -0.2867,-0.1694 -0.5478,-0.3096 -0.2611,-0.1402 -0.5897,-0.3199 -0.7303,-0.3994 -0.1407,-0.079 -0.4694,-0.2603 -0.7306,-0.4019 -0.7785,-0.4221 -1.2006,-0.6584 -1.2781,-0.7157 -0.04,-0.029 -0.2867,-0.1688 -0.5477,-0.3091 -0.6951,-0.3733 -1.1716,-0.6421 -1.4609,-0.8235 -0.1406,-0.088 -0.3213,-0.1811 -0.4017,-0.2067 -0.2908,-0.092 -1.5661,-1.1156 -1.8347,-1.4723 -0.1514,-0.2009 -0.2982,-0.3817 -0.3262,-0.4016 -0.1577,-0.1128 -0.6598,-1.2738 -0.7268,-1.6799 -0.2132,-1.2945 -0.2234,-1.6341 -0.1995,-6.6467 0.025,-5.2383 0.044,-5.6244 0.3113,-6.245 0.052,-0.1205 0.1513,-0.3506 0.2213,-0.5112 0.1467,-0.3371 0.7457,-1.1725 0.9962,-1.3895 0.2229,-0.193 1.331,-0.9264 1.7044,-1.1283 0.1607,-0.086 0.4073,-0.2258 0.5479,-0.3089 0.1406,-0.083 0.4693,-0.2667 0.7304,-0.408 0.2611,-0.1413 0.5973,-0.334 0.7472,-0.4284 0.1498,-0.095 0.289,-0.1715 0.3091,-0.1715 0.02,0 0.2559,-0.1342 0.5239,-0.2982 0.268,-0.1641 0.5561,-0.3275 0.6404,-0.3632 0.084,-0.036 0.3176,-0.164 0.5184,-0.2851 0.2008,-0.1211 0.4145,-0.243 0.4746,-0.2706 0.06,-0.028 0.2247,-0.1218 0.3653,-0.209 0.1406,-0.088 0.4692,-0.2742 0.7304,-0.4157 0.2611,-0.1411 0.5899,-0.3265 0.7305,-0.4118 0.1405,-0.085 0.3213,-0.1873 0.4016,-0.2268 0.08,-0.04 0.3104,-0.1692 0.5114,-0.2882 0.7045,-0.4172 1.6429,-0.8231 2.2828,-0.9874 1.155,-0.2966 2.7479,-0.1878 3.7469,0.2558 0.5956,0.2647 1.5191,0.7496 2.4794,1.3022 0.221,0.1271 0.4838,0.2703 0.5843,0.3183 0.1008,0.048 0.199,0.1056 0.2192,0.1268 0.02,0.022 0.1188,0.079 0.2191,0.1266 0.1008,0.048 0.3633,0.1912 0.5843,0.3185 0.2209,0.1271 0.6153,0.346 0.8764,0.4865 0.2611,0.1405 0.5076,0.2798 0.5479,0.3094 0.082,0.06 0.5676,0.3317 1.2781,0.7135 0.2612,0.1404 0.5076,0.2794 0.5479,0.3091 0.082,0.06 0.5691,0.3325 1.2781,0.7134 1.4939,0.8025 2.3532,1.6098 2.8372,2.6658 0.4547,0.9921 0.4576,1.0373 0.4328,7.2121 -0.019,4.5233 -0.042,5.6362 -0.1227,5.8433 -0.055,0.1406 -0.1485,0.387 -0.2074,0.5477 -0.059,0.1608 -0.1529,0.3795 -0.2088,0.4861 -0.055,0.1068 -0.102,0.231 -0.102,0.2764 0,0.1378 -0.9211,1.3474 -1.273,1.6718 -0.3266,0.3012 -0.8567,0.6655 -1.4021,0.9636 -0.3095,0.1693 -0.635,0.3509 -1.3055,0.7284 -0.241,0.1358 -0.5205,0.2918 -0.6209,0.3471 -0.1009,0.055 -0.3469,0.198 -0.5478,0.3175 -0.2009,0.12 -0.4473,0.2566 -0.5478,0.3046 -0.1008,0.048 -0.1992,0.1044 -0.2192,0.1254 -0.02,0.021 -0.1516,0.099 -0.2922,0.1734 -0.4698,0.2488 -1.0581,0.5774 -1.1319,0.6321 -0.041,0.029 -0.2868,0.1688 -0.548,0.3091 -0.2611,0.1403 -0.5897,0.3249 -0.7303,0.4104 -0.1406,0.085 -0.3049,0.178 -0.3652,0.2059 -0.06,0.028 -0.3068,0.1686 -0.5478,0.3128 -0.497,0.2973 -1.3849,0.7333 -1.4933,0.7333 -0.04,0 -0.18,0.047 -0.312,0.1032 -0.5141,0.2209 -1.2799,0.3353 -2.1858,0.3268 -0.4964,-0.012 -0.9683,-0.022 -1.0487,-0.038 z m 1.8727,-4.5204 c 0.3358,-0.062 0.7093,-0.158 0.8298,-0.2138 0.4618,-0.2137 0.7552,-0.3313 0.8267,-0.3313 0.041,0 0.085,-0.025 0.098,-0.055 0.013,-0.03 0.1723,-0.13 0.3531,-0.2219 0.1809,-0.092 0.3932,-0.2069 0.4719,-0.2556 0.3405,-0.2103 0.6912,-0.4119 1.135,-0.652 0.7561,-0.4092 1.1994,-0.6572 1.2782,-0.7148 0.08,-0.059 0.5503,-0.3213 1.2781,-0.7138 1.05,-0.5663 1.6831,-1.1003 2.1408,-1.806 0.3013,-0.4648 0.4022,-0.729 0.5722,-1.4974 0.1272,-0.5759 0.1343,-0.8773 0.097,-4.1633 -0.04,-3.4881 -0.09,-4.2515 -0.3018,-4.5629 -0.054,-0.079 -0.097,-0.1922 -0.097,-0.251 0,-0.1128 -0.5292,-0.7823 -0.7429,-0.9396 -0.07,-0.052 -0.169,-0.1354 -0.2212,-0.1873 -0.053,-0.052 -0.2586,-0.191 -0.4587,-0.3089 -0.2,-0.1176 -0.419,-0.2471 -0.4867,-0.2873 -0.069,-0.041 -0.2821,-0.1545 -0.4764,-0.254 -0.1942,-0.1 -0.4681,-0.2505 -0.6087,-0.3355 -0.244,-0.1474 -0.6505,-0.3739 -1.5338,-0.8547 -0.221,-0.1202 -0.4347,-0.2427 -0.4748,-0.2722 -0.041,-0.029 -0.262,-0.1568 -0.4931,-0.2826 -0.2309,-0.1258 -0.6089,-0.3326 -0.8399,-0.4594 -0.231,-0.127 -0.4856,-0.2666 -0.5661,-0.3104 -0.08,-0.044 -0.1953,-0.1152 -0.2556,-0.1585 -0.1975,-0.1417 -1.0521,-0.4884 -1.3878,-0.5627 -0.6675,-0.148 -2.0324,-0.064 -2.4576,0.1516 -0.075,0.038 -0.3653,0.1785 -0.6466,0.3129 -0.2812,0.1345 -0.7084,0.3628 -0.9495,0.5076 -0.241,0.1447 -0.4874,0.2859 -0.5478,0.3137 -0.06,0.028 -0.2246,0.1207 -0.3652,0.206 -0.1405,0.085 -0.466,0.2693 -0.7231,0.4086 -0.2571,0.1395 -0.5693,0.3156 -0.6938,0.3914 -0.1246,0.076 -0.2758,0.1604 -0.336,0.1879 -0.06,0.028 -0.2247,0.1214 -0.3652,0.2087 -0.1406,0.088 -0.4693,0.2741 -0.7305,0.4154 -1.0113,0.5474 -1.2188,0.6714 -1.6309,0.9744 -0.446,0.3279 -0.972,0.9855 -1.1363,1.4204 -0.24,0.6357 -0.2638,1.0689 -0.2616,4.7476 0,2.0287 0.031,3.8857 0.066,4.1267 0.1,0.6827 0.4589,1.3907 0.97,1.9091 0.4553,0.462 0.8965,0.7472 2.4968,1.6144 0.2571,0.1393 0.5693,0.3135 0.6939,0.3871 0.1245,0.073 0.4565,0.2559 0.7377,0.4051 0.2812,0.1494 0.6263,0.3427 0.767,0.43 0.1405,0.088 0.3047,0.1813 0.3651,0.2088 0.06,0.028 0.2246,0.12 0.3652,0.2045 0.3836,0.2317 1.3895,0.7455 1.68,0.858 0.3221,0.1249 1.4227,0.3592 1.7265,0.3677 0.1262,0 0.5042,-0.044 0.84,-0.1056 z"
         id="path4500-9-4-4-0-4-0-25" />
      <circle
         style="display:inline;mix-blend-mode:normal;fill:#fefefe;fill-opacity:1;stroke:none;stroke-width:1.92192;-inkscape-stroke:none;paint-order:fill markers stroke;stop-color:#000000"
         id="path10018-7-7-0-7-22"
         cx="-2353.9617"
         cy="-1372.6772"
         r="3.0742886" />
    </g>
  </g>
</svg>
